<svg width="60" height="79" viewBox="0 0 60 79" fill="none" xmlns="http://www.w3.org/2000/svg">
<path d="M32.1875 68.7393C36.1458 72.6995 38.6198 76.1198 39.6094 79H20.3906C21.3802 76.1198 23.8281 72.6995 27.7344 68.7393C25.1823 68.0706 22.2786 66.3477 19.0234 63.5703C15.7682 60.793 12.7474 57.5656 9.96094 53.8882C7.17448 50.2108 4.81771 46.1605 2.89062 41.7373C0.963542 37.3141 0 33.2767 0 29.625C0 24.276 1.34115 19.3257 4.02344 14.7739C6.70573 10.2222 10.3516 6.62191 14.9609 3.97314C19.5703 1.32438 24.5833 0 30 0C35.4167 0 40.4297 1.32438 45.0391 3.97314C49.6484 6.62191 53.2943 10.2222 55.9766 14.7739C58.6589 19.3257 60 24.276 60 29.625C60 33.2767 59.0365 37.3141 57.1094 41.7373C55.1823 46.1605 52.8255 50.2108 50.0391 53.8882C47.2526 57.5656 44.2318 60.793 40.9766 63.5703C37.7214 66.3477 34.7917 68.0706 32.1875 68.7393ZM19.9219 15.0439C17.9427 14.4782 16.0156 14.8896 14.1406 16.2783C12.2656 17.667 11.0156 19.6214 10.3906 22.1416C9.66146 24.6104 9.53125 28.9435 10 35.1411C10.4688 41.3387 11.3021 44.4375 12.5 44.4375C13.2292 44.4375 13.8281 43.6017 14.2969 41.9302C14.7656 40.2586 15.2474 38.3685 15.7422 36.2598C16.237 34.151 16.8229 32.7624 17.5 32.0938C17.7604 31.8366 18.2812 31.3351 19.0625 30.5894C19.8438 29.8436 20.4557 29.2393 20.8984 28.7764C21.3411 28.3135 21.862 27.7606 22.4609 27.1177C23.0599 26.4748 23.5417 25.8576 23.9062 25.2661C24.2708 24.6746 24.5052 24.096 24.6094 23.5303C25.8073 19.0557 24.2448 16.2269 19.9219 15.0439Z" fill="#E77CCA"/>
</svg>
