<svg width="62" height="64" viewBox="0 0 62 64" fill="none" xmlns="http://www.w3.org/2000/svg">
<path d="M41.3869 49.0494C43.0855 47.377 42.1689 43.5358 39.3941 39.0984C40.4025 38.9409 41.3453 38.7003 42.0584 38.3317C44.6244 37.0072 46.3569 34.5933 47.6683 32.0963C49.0781 29.4177 50.0242 26.4733 51.8639 24.0342C52.1745 23.6219 52.4852 23.2522 52.7947 22.9044C56.7639 23.3802 59.9325 24.2333 59.9325 24.2333L61.1433 21.1566C59.6151 20.6081 58.0481 20.1741 56.4555 19.8583C57.4311 19.3038 58.0677 19.1309 58.0677 19.1309L56.9203 16.0291C55.0806 16.8067 53.5877 17.9541 52.3375 19.3278C47.665 19.0664 42.9597 19.9972 39.2475 22.8759C36.4563 25.0416 34.5706 28.0439 32.7966 31.0473C31.2247 29.5048 29.5508 28.0698 27.7861 26.7522C28.1208 26.202 28.4795 25.7077 28.8656 25.3259C31.1986 23.0291 34.2764 21.5602 36.2955 18.9319C40.5392 13.4128 37.4352 4.76125 33.9439 0.28125C33.3183 0.883906 32.2836 1.76219 31.5048 2.45562C35.2159 6.25641 37.8114 12.9108 34.9031 17.883C33.2778 20.6622 30.2744 22.4056 28.1744 24.7933C27.8113 25.2078 27.4864 25.7328 27.1922 26.3125C21.7005 22.3739 16.6605 20.7891 14.6633 22.7556C14.465 22.9585 14.3016 23.1928 14.1798 23.4491L14.1722 23.4414L14.1186 23.5978C14.0442 23.7673 13.9764 23.9434 13.9305 24.1359L0.1875 63.7188L40.2866 49.6991L40.2756 49.6881C40.7066 49.5492 41.0861 49.3447 41.3869 49.0494ZM8.16422 58.6131L4.81734 57.0534L7.07594 50.5456L17.4348 55.3713L8.16422 58.6131ZM26.7044 52.1305L9.33672 44.0378L11.5953 37.5311L24.5738 44.0455C16.8267 39.0033 13.8539 31.0222 13.8539 31.0222L14.6261 28.7986C15.9988 32.2712 19.0186 36.5959 23.1683 40.6778C27.353 44.7969 31.7881 47.7806 35.333 49.1139L26.7044 52.1305ZM33.3752 31.6336C35.1886 29.0338 37.0578 26.4098 39.6566 24.5428C42.1306 22.7644 46.1469 22.4395 49.9542 22.6528C48.668 24.8994 47.7175 27.392 46.8644 29.7862C45.833 32.6847 44.4505 35.6903 41.8145 37.4677C41.1036 37.9467 40.1072 38.2967 39.043 38.5559C37.5806 36.3148 35.6622 33.9458 33.3752 31.6336Z" fill="#E77CCA"/>
</svg>
