<svg width="70" height="70" viewBox="0 0 70 70" fill="none" xmlns="http://www.w3.org/2000/svg">
<path d="M43.3869 52.0494C45.0855 50.377 44.1689 46.5358 41.3941 42.0984C42.4025 41.9409 43.3453 41.7003 44.0584 41.3317C46.6244 40.0072 48.3569 37.5933 49.6683 35.0963C51.0781 32.4177 52.0242 29.4733 53.8639 27.0342C54.1745 26.6219 54.4852 26.2522 54.7947 25.9044C58.7639 26.3802 61.9325 27.2333 61.9325 27.2333L63.1433 24.1566C61.6151 23.6081 60.0481 23.1741 58.4555 22.8583C59.4311 22.3038 60.0677 22.1309 60.0677 22.1309L58.9203 19.0291C57.0806 19.8067 55.5877 20.9541 54.3375 22.3278C49.665 22.0664 44.9597 22.9972 41.2475 25.8759C38.4563 28.0416 36.5706 31.0439 34.7966 34.0473C33.2247 32.5048 31.5508 31.0698 29.7861 29.7522C30.1208 29.202 30.4795 28.7077 30.8656 28.3259C33.1986 26.0291 36.2764 24.5602 38.2955 21.9319C42.5392 16.4128 39.4352 7.76125 35.9439 3.28125C35.3183 3.88391 34.2836 4.76219 33.5048 5.45562C37.2159 9.25641 39.8114 15.9108 36.9031 20.883C35.2778 23.6622 32.2744 25.4056 30.1744 27.7933C29.8113 28.2078 29.4864 28.7328 29.1922 29.3125C23.7005 25.3739 18.6605 23.7891 16.6633 25.7556C16.465 25.9585 16.3016 26.1928 16.1798 26.4491L16.1722 26.4414L16.1186 26.5978C16.0442 26.7673 15.9764 26.9434 15.9305 27.1359L2.1875 66.7188L42.2866 52.6991L42.2756 52.6881C42.7066 52.5492 43.0861 52.3447 43.3869 52.0494ZM10.1642 61.6131L6.81734 60.0534L9.07594 53.5456L19.4348 58.3713L10.1642 61.6131ZM28.7044 55.1305L11.3367 47.0378L13.5953 40.5311L26.5738 47.0455C18.8267 42.0033 15.8539 34.0222 15.8539 34.0222L16.6261 31.7986C17.9988 35.2712 21.0186 39.5959 25.1683 43.6778C29.353 47.7969 33.7881 50.7806 37.333 52.1139L28.7044 55.1305ZM35.3752 34.6336C37.1886 32.0338 39.0578 29.4098 41.6566 27.5428C44.1306 25.7644 48.1469 25.4395 51.9542 25.6528C50.668 27.8994 49.7175 30.392 48.8644 32.7862C47.833 35.6847 46.4505 38.6903 43.8145 40.4677C43.1036 40.9467 42.1072 41.2967 41.043 41.5559C39.5806 39.3148 37.6622 36.9458 35.3752 34.6336Z" fill="#E77CCA"/>
<path d="M25.1922 24.0625C26.2882 24.0625 23.0026 20.7813 23.5516 17.9036C25.656 17.7417 30.4663 18.69 27.6663 14.8444C30.8338 15.4022 32.4744 13.0375 29.4841 10.7964C30.4794 10.8664 32.026 8.98953 30.9158 8.75219C27.359 7.9986 25.9666 9.9225 28.2241 12.6973C25.8507 12.2555 23.9158 13.3591 25.6987 15.8375C18.8452 14.9833 22.7444 24.0625 25.1922 24.0625Z" fill="#E77CCA"/>
<path d="M48.7211 21.1466C49.7481 20.6828 48.0057 17.6192 47.4392 16.8361C51.7737 16.3724 51.6097 15.0806 48.8917 12.3134C56.2811 12.5617 49.1203 8.36173 50.1243 6.69923C50.9939 5.25766 53.6615 6.76923 53.4143 5.96641C52.5809 3.28126 44.6753 5.09688 49.6781 10.1106C45.3118 10.1959 44.8929 11.6233 48.1468 14.5819C42.479 14.6442 47.1034 21.875 48.7211 21.1466Z" fill="#E77CCA"/>
<path d="M67.4812 31.9648C65.7509 32.4494 65.484 32.2678 65.7148 33.9905C61.7183 32.1508 57.4898 29.5925 60.0557 36.3705C55.5167 33.6678 55.7431 36.0347 54.8943 39.9295C53.7897 39.0687 52.2201 36.8003 52.2201 36.8003L50.5576 38.2123C50.5576 38.2123 53.6037 42.5086 55.1076 42.2647C56.43 42.0514 57.1497 39.5522 57.2229 37.3494C61.4339 39.1267 63.4497 39.3641 61.5236 34.1666C64.8901 36.0576 69.0179 37.7256 67.4812 31.9648Z" fill="#E77CCA"/>
<path d="M6.61607 12.5092L9.70919 15.6034L6.61607 18.6966L3.52185 15.6034L6.61607 12.5092Z" fill="#E77CCA"/>
<path d="M14.0263 25.3728L10.9309 28.4659L7.83673 25.3706L10.932 22.2764L14.0263 25.3728Z" fill="#E77CCA"/>
<path d="M18.8345 7.65625L21.9276 10.7494L18.8334 13.8447L15.7402 10.7494L18.8345 7.65625Z" fill="#E77CCA"/>
<path d="M52.5119 50.8419L49.4166 47.7477L52.5097 44.6524L55.6051 47.7466L52.5119 50.8419Z" fill="#E77CCA"/>
<path d="M45.6148 61.4534L42.5217 58.3603L45.6148 55.2661L48.709 58.3603L45.6148 61.4534Z" fill="#E77CCA"/>
<path d="M59.1861 63.8969L56.0908 60.8026L59.1828 57.7073L62.2781 60.8016L59.1861 63.8969Z" fill="#E77CCA"/>
<path d="M62.2793 49.805L59.1862 46.7108L62.2793 43.6177L65.3724 46.7108L62.2793 49.805Z" fill="#E77CCA"/>
<path d="M57.1157 10.9375L60.2088 14.0306L57.1146 17.1248L54.0215 14.0306L57.1157 10.9375Z" fill="#E77CCA"/>
</svg>
